/* XPM */
static char * coin_xpm[] = {
"200 50 7 1",
" 	c None",
".	c #D1851E",
"+	c #E84444",
"@	c #FFD569",
"#	c #25131A",
"$	c #FFFFFF",
"%	c #000000",
"                                                                                                                                                                                                        ",
"                                                                                                                                                                                                        ",
"                                                                                                                                                                                                        ",
"                                                                                                                                                                                                        ",
"                                                                                                                                                                                                        ",
"                                                                                                                                                                                                        ",
"                                                                                                                                                                                                        ",
"                                                                                                                                                                                                        ",
"                                                                     ..   .+                                           ..   ..                                                                          ",
"                                                                    @@@@@@.++                                         .........                                                                         ",
"                                                                    $$$$$@@@+                                         ........+                                                                         ",
"                                                                    $$$$$$@@+                                         @@@@@@..+                                                                         ",
"                                                                    $$$$$$$@@                                         @@@@@@@@+                                                                         ",
"                   ..   ..                                      @$$$$$$$$$@@@++++                                 .@@@@@@@@@@@@@+++                                 ..             ..                   ",
"                  ........+                                    .@$$$$$$$$$@@+++++#                               .@@@@@@@@@@@@@@@@++                               ..................+                  ",
"                  ........+                                    .@$$$$$$$$@@@+++++#                               @@@@@@@@$$$$$$$@@@+                               ..................+                  ",
"                  @@@@@@..+                                     @$$$$$$$@@@@+++++                                @@@@@@@$$$$$$$$$@@+                               @@@@@@@@@@@@@@@@..+                  ",
"                  @@@@@@@..                                     @$$$$$$@@@@@.++++                                @@@@@@$$$$$$$$$$$@@                               @@@@@@@@@@@@@@@@@..                  ",
"              .@@@@@@@@@@@..+++                                 @$$$$$@@@@@@..+++                            ..@@@@@@@$$$$$$$$$$$$@@++++                       .@@@@@@@@@@@@@@@@@@@@@..+++              ",
"             .@@@@@@@@@@@@@...++                                @$$$@@@@@@@@@...+                           ...@@@@@@$$$$$$$$$$$$$@@++++#                     .@@@@@@@@@@@@@@@@@@@@@@@...++             ",
"             @@@@@@@@@@@@@@@@..+                                $@@@@@@@@@@@@@@..                           ...@@@@@$$$$$$$$$$$$$$@@++++#                     @@@@@@@@@@@@@@@@@@@@@@@@@@..+             ",
"             @@@@@@@@@@@@@@@@@.+                                $@@@@@....@@@@@@.                            ..@@@@$$$$$$$$$$$$$$$@@++++                      @@@@@@@@@......@@@@@@@@@@@@.+             ",
"             @@@@@@@@@@@@@@@@@.+                               $$@@@......@@@@@@.+                           .@@@@$$$$$$$$$$$$$$$$@@++++                      @@@@@@@@........@@@@@@@@@@@.+             ",
"         ..@@@@@@@@@@@@@@@@@@@.+++++                       @@$$$$@@.......@@@@@@@+++++                       .@@@$$$$$$$$$$$$$$$$@@@++++                  ..@@@@@@@@@@.........@@@@@@@@@@.+++++         ",
"        ...@@@@@@@@@@@@@@@@@@@@+++++#                     .@@$$$@@@.......@@@@@@@+++++#                      .@@$$$$$$$$$$$$$$$$$@@+++++                 ...@@@@@@@@@..........@@@@@@@@@@.+++++#        ",
"        ...@@@@@@@@..@@@@@@@@@@+++++#                     .@@@@@@@@.......@@@@@@@+++++#                      @@$$$$$$$$$$$$$$$$$@@@+++++                 ...@@@@@@@@@..........@@@@@@@@@@.+++++#        ",
"         ..@@@@@@.......@@@@@@@+++++                       .@@@@@@........@@@@@@@+++++                       @@$$$$$$$$$$$$$$$$@@@@+++++                  ..@@@@@@@@@.........@@@@@@@@@@@@+++++         ",
"         ..@@@@@........@@@@@@@+++++                       .@@@@@@........@@@@@@@+++++                       @$$$$$$$$$$$$$$$$@@@@@+++++                  ..@@@@@@@@@@........@@@@@@@@@@@@+++++         ",
"         ..@@@@@........@@@@@@@+++++                       .@@@@@@........@@@@@@@+++++                       @$$$$$$$$$$$$$$$@@@@@.+++++                  ..@@@@@@@@@.........@@@@@@@@@@@@+++++         ",
"         ..@@@@@.........@@@@@@+++++                      ...@@@@@........@@@@@@@+++++#                     .@$$$$$$$$$$$$$$@@@@@@.+++++#                ...@@@@@@@@@.........@@@@$$$$@@@@+++++#        ",
"         ..@@@@@.........@@@@@@+++++                      ...@@@@@........@@@@@@@+++++#                     .@$$$$$$$$$$$$$@@@@@@@.+++++#                ...@@@@@@@@@........@@@$$$$$$$$@@@++++#        ",
"         ..@@@@@........@@@@@@@+++++                       ..@@@@@........@@@@@@@+++++                       @$$$$$$$$$$$$@@@@@@@@.+++++                  ..@@@@@@@@@@.......@@$$$$$$$$$@@@++++         ",
"         ..@@@@@........@@@@@@@+++++                           @@@........@@@@@@.+                               $$$$$$$$@@@@@@@@@.+                          @@@@@@@@@.....@@@$$$$$$$$$$@@             ",
"         ..@@@@@@.......@@@@@@@+++++                            @@........@@@@@@.                                $$$$$$$@@@@@@@@@@.+                          @@@@@@@@@@@@@@@@$$$$$$$$$$@@+             ",
"        ...@@@@@@@@..@@@@@@@@@@+++++#                           .@@@@..@@@@@@@@..                                $$$$$$@@@@@@@@@@..+                          @@@@@@@@@@@@@@@$$$$$$$$$$@@@+             ",
"        ...@@@@@@@@@@@@@@@@@@@@+++++#                           ..@@@@@@@@@@@...+                                @@@@@@@@@@@@@@...++                          .@@@@@@@$$$$$$$$$$$$$$$$@@@++             ",
"         ..@@@@@@@@@@@@@@@@@@@.+++++                            ..@@@@@@@@@@..+++                                 @@@@@@@@@@@@..+++                            .@@@@@$$$$$$$$$$$$$$$$@@+++              ",
"             @@@@@@@@@@@@@@@@@.+                                ..@@@@@@@@@@.++++                                     @@@@@@@..                                    @@$$$$$$$$$$$$$$$@@                  ",
"             @@@@@@@@@@@@@@@@@.+                                ..@@@@@@@@@@+++++                                     @@@@@@..+                                    @@$$$$$$$$$$$$$$@@+                  ",
"             @@@@@@@@@@@@@@@@..+                               ...@@@@@@@@@@+++++#                                    ........+                                    @@@@$$$$$$$$$$$@@@+                  ",
"             .@@@@@@@@@@@@@...++                               ...@@@@@@@@@@+++++#                                    ........+                                    .@@@@@@@@@@@@@@@.++                  ",
"              .@@@@@@@@@@@..+++                                 ..@@@@@@@@@.+++++                                      ..   ..                                      ..             .+                   ",
"                  @@@@@@@..                                         @@@@@@@.+                                                                                                                           ",
"                   @@@@@..                                           @@@@@..                                                                                                                            ",
"                   @@.....                                           @@.....                                                                                                                            ",
"                   .......                                           .......                                                                                                                            ",
"                   .......                                           .......                                                                                                                            ",
"                   #######                                           #######                                                                                                                            ",
"                   #######                                           #######                                                                                                                            ",
"                   %%%%%%%                                           %%%%%%%                                                                                                                            "};
