/* XPM */
static char * enemie anim_xpm[] = {
"300 50 8 1",
" 	c None",
".	c #4A3B1F",
"+	c #2379EA",
"@	c #E5AB3D",
"#	c #FDC760",
"$	c #FFFFFF",
"%	c #D8B78F",
"&	c #FFD7A8",
"                                                                                                                                                                                                                                                                                                            ",
"                                                                                                                                                                                                                                                                                                            ",
"                                                                                                                                                                                                                                                                                                            ",
"                                                                                                                                                                                                                                                                                                            ",
"                                                                                                                                                                                                                                                                                                            ",
"                                                                                                                                                                                                                                                                                                            ",
"                                                                                                                                                                                                                                                                                                            ",
"                                                                                                                                                                                                                                                                                                            ",
"                                                                                                                                                                                                                                                                                                            ",
"                                                                                                                                                                                                                                                                                                            ",
"                                                                                                                                                                                                                                                                                                            ",
"                                                                                                                                                                                                                                                                                                            ",
"                   .............................                                                                       .............................                     .............................                                                                       .............................  ",
"                   .............................                                                                       .............................                     .............................                                                                       .............................  ",
"                   .............................                                                                       .............................                     .............................                                                                       .............................  ",
"                 ....++..@@@@@@@@###############..                   .............................                   ....++..@@@@@@@@###############..                 ....++..@@@@@@@@###############..                   .............................                   ....++..@@@@@@@@###############..",
"                 ....++..@@@@@@@@###############..                   .............................                   ....++..@@@@@@@@###############..                 ....++..@@@@@@@@###############..                   .............................                   ....++..@@@@@@@@###############..",
"                 ..++....@@@@@@@@@@#####@@@@@@##..                 ....++..@@@@@@@@###############..                 ..++....@@@@@@@@@@#####@@@@@@##..                 ..++....@@@@@@@@@@#####@@@@@@##..                 ....++..@@@@@@@@###############..                 ..++....@@@@@@@@@@#####@@@@@@##..",
"                 ..++....@@@@@@@@@@#####@@@@@@##..                 ....++..@@@@@@@@###############..                 ..++....@@@@@@@@@@#####@@@@@@##..                 ..++....@@@@@@@@@@#####@@@@@@##..                 ....++..@@@@@@@@###############..                 ..++....@@@@@@@@@@#####@@@@@@##..",
"                   ..++..@@$$$$$$@@##...######....                 ..++....@@@@@@@@@@#####@@@@@@##..                   ..++..@@$$$$$$@@##...######....                   ..++..@@$$$$$$@@##...######....                 ..++....@@@@@@@@@@#####@@@@@@##..                   ..++..@@$$$$$$@@##...######....",
"                   ..++..@@$$$$$$@@##...######....                 ..++....@@@@@@@@@@#####@@@@@@##..                   ..++..@@$$$$$$@@##...######....                   ..++..@@$$$$$$@@##...######....                 ..++....@@@@@@@@@@#####@@@@@@##..                   ..++..@@$$$$$$@@##...######....",
"                 ..++....@@$$..$$@@#############..                   ..++..@@$$$$$$@@##...######....                 ..++....@@$$..$$@@#############..                 ..++....@@$$..$$@@#############..                   ..++..@@$$$$$$@@##...######....                 ..++....@@$$..$$@@#############..",
"                 ..++....@@$$..$$@@#############..                   ..++..@@$$$$$$@@##...######....                 ..++....@@$$..$$@@#############..                 ..++....@@$$..$$@@#############..                   ..++..@@$$$$$$@@##...######....                 ..++....@@$$..$$@@#############..",
"                 ........@@$$$$$$@@#############..                 ..++....@@$$..$$@@#############..                 ........@@$$$$$$@@#############..                 ........@@$$$$$$@@#############..                 ..++....@@$$..$$@@#############..                 ........@@$$$$$$@@#############..",
"                 ........@@$$$$$$@@#############..                 ..++....@@$$..$$@@#############..                 ........@@$$$$$$@@#############..                 ........@@$$$$$$@@#############..                 ..++....@@$$..$$@@#############..                 ........@@$$$$$$@@#############..",
"                     ....@@@@@@@@@@#############..                 ........@@$$$$$$@@#############..                     ....@@@@@@@@@@#############..                     ....@@@@@@@@@@#############..                 ........@@$$$$$$@@#############..                     ....@@@@@@@@@@#############..",
"                     ....@@@@@@@@@@#############..                 ........@@$$$$$$@@#############..                     ....@@@@@@@@@@#############..                     ....@@@@@@@@@@#############..                 ........@@$$$$$$@@#############..                     ....@@@@@@@@@@#############..",
"            .........@@....@@@@@@@@.............                       ....@@@@@@@@@@#############..            .........@@....@@@@@@@@.............              .........@@....@@@@@@@@.............                       ....@@@@@@@@@@#############..            .........@@....@@@@@@@@.............  ",
"            .........@@....@@@@@@@@.............                       ....@@@@@@@@@@#############..            .........@@....@@@@@@@@.............              .........@@....@@@@@@@@.............                       ....@@@@@@@@@@#############..            .........@@....@@@@@@@@.............  ",
"            ...####@@@@@@%%&&&&&&&&..                         .........@@....@@@@@@@@.............              ...####@@@@@@%%&&&&&&&&..                         ...####@@@@@@%%&&&&&&&&..                         .........@@....@@@@@@@@.............              ...####@@@@@@%%&&&&&&&&..             ",
"            ...####@@@@@@%%&&&&&&&&..                         .........@@....@@@@@@@@.............              ...####@@@@@@%%&&&&&&&&..                         ...####@@@@@@%%&&&&&&&&..                         .........@@....@@@@@@@@.............              ...####@@@@@@%%&&&&&&&&..             ",
"               ..@@@@@@..%%%%%%....                           ...####@@@@@@%%&&&&&&&&..                            ..@@@@@@%%%%%%%%##..                              ..@@@@@@%%%%%%%%....                           ...####@@@@@@%%&&&&&&&&..                            ..@@@@####..%%%%....               ",
"               ..@@@@@@..%%%%%%....                           ...####@@@@@@%%&&&&&&&&..                            ..@@@@@@%%%%%%%%##..                              ..@@@@@@%%%%%%%%....                           ...####@@@@@@%%&&&&&&&&..                            ..@@@@####..%%%%....               ",
"                 ..@@####..####..                                ..@@@@@@..%%%%%%....                                ..@@########@@@@..                                ..@@############..                              ..@@@@@@%%%%%%%%....                                ..@@@@@@..####..                 ",
"                 ..@@####..####..                                ..@@@@@@..%%%%%%....                                ..@@########@@@@..                                ..@@############..                              ..@@@@@@%%%%%%%%....                                ..@@@@@@..####..                 ",
"                   ..@@##......                                    ..@@####..####..                                  ..@@##..........                                ..@@@@##......@@##..                                ..@@##..######....                                  ........##..                   ",
"                   ..@@##......                                    ..@@####..####..                                  ..@@##..........                                ..@@@@##......@@##..                                ..@@##..######....                                  ........##..                   ",
"                     ........                                      ..@@####..@@##..                                  ..@@..                                          ........      ......                                ..@@@@..########..                                      ..@@..                     ",
"                     ........                                      ..@@####..@@##..                                  ..@@..                                          ........      ......                                ..@@@@..########..                                      ..@@..                     ",
"                     ........                                      ..@@####..@@##..                                  ..@@..                                          ........      ......                                ..@@@@..########..                                      ..@@..                     ",
"                                                                     ..@@##......                                    ....                                                                                                ............@@##..                                      ....                       ",
"                                                                     ..@@##......                                    ....                                                                                                ............@@##..                                      ....                       ",
"                                                                     ........                                                                                                                                                      ......                                                                   ",
"                                                                     ........                                                                                                                                                      ......                                                                   ",
"                                                                                                                                                                                                                                                                                                            ",
"                                                                                                                                                                                                                                                                                                            ",
"                                                                                                                                                                                                                                                                                                            ",
"                                                                                                                                                                                                                                                                                                            ",
"                                                                                                                                                                                                                                                                                                            ",
"                                                                                                                                                                                                                                                                                                            "};
