/* XPM */
static char * exit_xpm[] = {
"50 50 300 2",
"  	c None",
". 	c #301825",
"+ 	c #281226",
"@ 	c #271126",
"# 	c #1C0828",
"$ 	c #100029",
"% 	c #0E0026",
"& 	c #040010",
"* 	c #1A0A18",
"= 	c #271226",
"- 	c #2F181E",
"; 	c #230F24",
"> 	c #110129",
", 	c #08001A",
"' 	c #110029",
") 	c #100028",
"! 	c #10050B",
"~ 	c #10031C",
"{ 	c #0F0028",
"] 	c #0E0025",
"^ 	c #050014",
"/ 	c #08001E",
"( 	c #07001A",
"_ 	c #09001B",
": 	c #0F0027",
"< 	c #10002A",
"[ 	c #0F0029",
"} 	c #0D0023",
"| 	c #060016",
"1 	c #000005",
"2 	c #040012",
"3 	c #0A001E",
"4 	c #0B001F",
"5 	c #341C23",
"6 	c #2D1625",
"7 	c #1D0928",
"8 	c #0B0020",
"9 	c #070017",
"0 	c #0D0024",
"a 	c #0C0021",
"b 	c #03000C",
"c 	c #0B0021",
"d 	c #150423",
"e 	c #1F0B27",
"f 	c #170429",
"g 	c #09001F",
"h 	c #060205",
"i 	c #180A0D",
"j 	c #17061F",
"k 	c #190628",
"l 	c #060015",
"m 	c #010005",
"n 	c #000001",
"o 	c #010003",
"p 	c #010006",
"q 	c #190B12",
"r 	c #2D1721",
"s 	c #1F0B26",
"t 	c #06001D",
"u 	c #10050A",
"v 	c #2D171D",
"w 	c #291325",
"x 	c #150329",
"y 	c #2B1526",
"z 	c #0C0022",
"A 	c #050013",
"B 	c #050012",
"C 	c #000000",
"D 	c #0B0404",
"E 	c #190A0E",
"F 	c #0F0412",
"G 	c #00000C",
"H 	c #100609",
"I 	c #30191E",
"J 	c #341B24",
"K 	c #2A1426",
"L 	c #160428",
"M 	c #371D23",
"N 	c #361D24",
"O 	c #251027",
"P 	c #0F002A",
"Q 	c #0A0304",
"R 	c #231116",
"S 	c #311A1F",
"T 	c #281227",
"U 	c #1A0729",
"V 	c #311A20",
"W 	c #220E23",
"X 	c #03000B",
"Y 	c #040202",
"Z 	c #221115",
"` 	c #301920",
" .	c #200D23",
"..	c #0D0025",
"+.	c #15080C",
"@.	c #0D040E",
"#.	c #04000F",
"$.	c #04000E",
"%.	c #09001C",
"&.	c #0A001F",
"*.	c #03000D",
"=.	c #000002",
"-.	c #0C0406",
";.	c #16090C",
">.	c #02000A",
",.	c #0E021A",
"'.	c #06001B",
").	c #08001B",
"!.	c #080019",
"~.	c #020009",
"{.	c #0B0405",
"].	c #200F14",
"^.	c #17081A",
"/.	c #361D23",
"(.	c #311924",
"_.	c #0E0029",
":.	c #1B0828",
"<.	c #321A20",
"[.	c #351C24",
"}.	c #1E0A28",
"|.	c #371E23",
"1.	c #2E1725",
"2.	c #160329",
"3.	c #2F1825",
"4.	c #200C28",
"5.	c #321B20",
"6.	c #371E24",
"7.	c #341C21",
"8.	c #2F1822",
"9.	c #1C0826",
"0.	c #100127",
"a.	c #0A001D",
"b.	c #15080B",
"c.	c #2F191E",
"d.	c #2C1623",
"e.	c #140327",
"f.	c #0E0027",
"g.	c #1B0C0F",
"h.	c #180910",
"i.	c #090113",
"j.	c #040013",
"k.	c #080304",
"l.	c #180A0E",
"m.	c #1B0C10",
"n.	c #160811",
"o.	c #080113",
"p.	c #200F13",
"q.	c #1C0C14",
"r.	c #0D0216",
"s.	c #060017",
"t.	c #0A0305",
"u.	c #1D0D11",
"v.	c #1A0B14",
"w.	c #0A0117",
"x.	c #351D22",
"y.	c #301823",
"z.	c #190627",
"A.	c #0E0028",
"B.	c #361D22",
"C.	c #2D1624",
"D.	c #150328",
"E.	c #1A0628",
"F.	c #010004",
"G.	c #010002",
"H.	c #020007",
"I.	c #180A10",
"J.	c #0A0213",
"K.	c #11002A",
"L.	c #070018",
"M.	c #1C0C10",
"N.	c #180626",
"O.	c #0D0027",
"P.	c #09001D",
"Q.	c #311925",
"R.	c #251216",
"S.	c #200F17",
"T.	c #0F031A",
"U.	c #07001B",
"V.	c #0D0406",
"W.	c #211014",
"X.	c #1E0D18",
"Y.	c #0C021A",
"Z.	c #17090C",
"`.	c #14070D",
" +	c #07010F",
".+	c #030010",
"++	c #020008",
"@+	c #060203",
"#+	c #14080B",
"$+	c #12060D",
"%+	c #06010F",
"&+	c #170525",
"*+	c #020003",
"=+	c #040102",
"-+	c #050202",
";+	c #030101",
">+	c #14070A",
",+	c #2E181D",
"'+	c #2A1522",
")+	c #130325",
"!+	c #1A0629",
"~+	c #070019",
"{+	c #13041D",
"]+	c #26121A",
"^+	c #29151A",
"/+	c #381E24",
"(+	c #180528",
"_+	c #261127",
":+	c #30191F",
"<+	c #220D27",
"[+	c #341C24",
"}+	c #1A0B0F",
"|+	c #321A24",
"1+	c #020006",
"2+	c #160429",
"3+	c #291326",
"4+	c #331B24",
"5+	c #371D24",
"6+	c #341C22",
"7+	c #1C0D10",
"8+	c #210C27",
"9+	c #291519",
"0+	c #24111A",
"a+	c #12041E",
"b+	c #09001E",
"c+	c #10031E",
"d+	c #271318",
"e+	c #130709",
"f+	c #0F0507",
"g+	c #261317",
"h+	c #27131A",
"i+	c #17071D",
"j+	c #13070A",
"k+	c #11060B",
"l+	c #06010C",
"m+	c #08020C",
"n+	c #110608",
"o+	c #100608",
"p+	c #0E0506",
"q+	c #010001",
"r+	c #12070A",
"s+	c #09020C",
"t+	c #2A151F",
"u+	c #150522",
"v+	c #0B0023",
"w+	c #1F0C21",
"x+	c #2E181E",
"y+	c #2B161B",
"z+	c #231115",
"A+	c #2D171E",
"B+	c #1C0922",
"C+	c #0C0023",
"D+	c #120129",
"E+	c #210D28",
"F+	c #331B22",
"G+	c #19081D",
"H+	c #010010",
"I+	c #210C28",
"J+	c #140229",
"K+	c #240F26",
"L+	c #11041A",
"M+	c #301924",
"N+	c #1D0A27",
"O+	c #2F1824",
"P+	c #351C22",
"Q+	c #321A23",
"R+	c #210F17",
"S+	c #281419",
"T+	c #331B23",
"U+	c #200C26",
"V+	c #211013",
"W+	c #1D0D14",
"X+	c #0D0317",
"Y+	c #060018",
"Z+	c #040011",
"`+	c #03000E",
" @	c #120516",
".@	c #1F0F14",
"+@	c #15080A",
"@@	c #020101",
"#@	c #170A0D",
"$@	c #1F0E14",
"%@	c #170910",
"&@	c #090212",
"*@	c #0D0312",
"=@	c #190B0F",
"-@	c #1A0C0F",
";@	c #120709",
">@	c #0E0412",
",@	c #2E1822",
"'@	c #1E0B25",
")@	c #311A22",
"!@	c #331B21",
"~@	c #2D171C",
"{@	c #261318",
"]@	c #1F0B25",
"^@	c #14080A",
"/@	c #291419",
"(@	c #351C23",
"_@	c #200C27",
"                                                                                                    ",
"                                . + @ # $ $ $ $ % & * = = # $ $ $ $                                 ",
"                              - ; > $ $ $ $ $ $ % & , $ ' $ $ $ $ $ )                               ",
"                              ! ~ { $ $ $ $ $ $ % & , $ $ $ $ $ $ $ ] ^                             ",
"                          / / / ( _ : $ $ $ $ < % & , $ $ $ $ [ $ } | 1 2 3 4                       ",
"                    5 6 7 [ $ $ 8 9 4 % $ $ 0 a 3 b ^ c a c d e f g h i j [ $ $                     ",
"                    6 k > $ $ $ $ } ^ 3 : ] l m m n o p p 1 q r s t u v w x ' $                     ",
"                  y # > [ $ $ $ $ { z , A B p C C C C C C C D E F G H I J K L [ $                   ",
"              M N O P $ $ $ $ $ $ { 8 & C C C C C C C C C C C C C C Q R S J T U $ $ $               ",
"                V W ] ] ] : $ $ { a X C C C C C C C C C C C C C C C C Y Z V `  ...] ] _             ",
"                +.@.#.#.$.%.{ $ &.*.=.C C C C C C C C C C C C C C C C C -.;.;.@.#.#.#.>.            ",
"                ,.'.).!.~.X , ).& C C C C C C C C C C C C C C C C C C C C {.].^.'.).).).            ",
"            /.(.k _.$ : , ~.n n C C C C C C C C C C C C C C C C C C C C C ;.V K k > $ $             ",
"            /.(.:.$ $ $ : %.o C C C C C C C C C C C C C C C C C C C C C C ;.<.[.y x [ $             ",
"            /.5 6 }.$ $ < 4 o C C C C C C C C C C C C C C C C C C C C C C ;.<.|.1.2.[ $             ",
"            M [.3.4.$ $ < 4 o C C C C C C C C C C C C C C C C C C C C C C ;.5.6.1.2.[ $             ",
"            7.8.9.0.: : : a.o C C C C C C C C C C C C C C C C C C C C C C b.c.7.d.e.f.:             ",
"            g.h.i.j.A A A *.n C C C C C C C C C C C C C C C C C C C C C C k.l.m.n.o.A A             ",
"            p.q.r.s.9 9 9 & n C C C C C C C C C C C C C C C C C C C C C C t.u.p.v.w.s.9             ",
"            x.y.z.A.{ { ) 3 o C C C C C C C C C C C C C C C C C C C C C C +.S B.C.D.A.{             ",
"            M (.E.[ $ $ $ 4 o C C C C C C C C C C C C C C C C C C C C C C ;.<.|.1.2.[ $             ",
"            /.(.E._.$ $ $ 4 o C C C C C C C C C C C C C C C C C C C C C C ;.<.|.1.2.[ $             ",
"            |.(.E.[ $ $ $ 4 o C C C C C C C C C C C C C C C C C C C C C C ;.<.|.1.2.[ $             ",
"            x.y.z.A.{ { ) 3 F.=.o G.C C C C C C C C C C C C C C C C C C C b.S B.C.D.A.{             ",
"            p.q.r.s.9 9 9 #.H., 4 , p C C C C C C C C C C C C C C C C C C t.u.p.v.w.s.9             ",
"            g.I.J.j.A A A b X 0 K.% L.~.C C C C C C C C C C C C C C C C C k.l.M.n.o.A A             ",
"            7.8.N.O.: : : P.b a { : ] l C C C C C C C C C C C C C C C C C b.c.7.d.e.f.:             ",
"            |.Q.E.[ $ $ < 4 p #.^ A A ~.C C C C C C C C C C C C C C C C C ;.5.6.1.2.[ $             ",
"            /.(.E._.$ $ $ &.H.A 9 s.s.9 9 9 L.& C C C C C C C C C C C C C ;.<.|.1.2.[ $             ",
"            M (.E._.$ $ $ 3 b z ) { { { { { ) 8 X =.C C C C C C C C C C C ;.<.|.1.2.[ $             ",
"            /.(.k _.$ $ $ 3 *.} < $ $ $ $ $ $ : a b C C C C C C C C C C C ;.<.M 1.D.[ $             ",
"            R.S.T.U.).).).B X 0 K.$ $ $ $ $ $ K.: & C C C C C C C C C C C V.W.R.X.Y.).).            ",
"            Z.`. +.+& & & ~.++3 0 0 0 0 0 0 0 0 c b C C C C C C C C C C C @+#+Z.$+%+& &             ",
"            5.r &+..] ] % %.m >.*.*.*.*.*.*.*.*.b m o *+=+-+;+C C C C C C >+,+5.'+)+..]             ",
"            |.Q.!+P $ $ < 4 ~.~+3 3 3 3 3 3 3 3 3 3 / {+]+^+W.=+C C C C C ;.5./+1.x P $             ",
"            /.(.E._.$ $ $ 3 *.0 < $ $ $ $ $ $ $ $ $ (+_+J |.:+u.t.C C C C ;.<.|.(.<+x $             ",
"            /.(.E._.$ $ $ 3 b a $ $ $ $ $ $ $ $ ' x = [+/././.V }+C C C C ;.<.M /.|+e [             ",
"            |.(.E.[ $ $ $ 4 1+& 8 $ $ $ $ $ $ [ 2+3+4+/././.5+6+7+C C C C ;.<.6.|.[+8+[             ",
"            9+0+a+b+3 3 3 | =.C B 3 3 3 3 3 3 / c+0+9+9+9+9+^+d+e+C C C C f+g+^+9+h+i+b+            ",
"            j+k+l+*.*.*.*.++n C 1+*.*.*.*.*.*.m+! j+j+j+j+j+j+j+n+o+p+=+C q+-+f+j+r+s+*.            ",
"            c.t+u+v+} } } , G.C | } } } } } } w+x+c.- - - - - - c.I y+j+C C ;+z+c.A+B+C+            ",
"            |.Q.!+P $ $ < 4 o C ).$ < $ P D+E+1.N M M M M M M M M 6.F+G+H+C -+^+6.[+I+P             ",
"            M (.E.[ $ $ $ 4 o C ).$ $ $ J+}.. /./././././././././.M 4+K+L+C -+^+|.[+8+[             ",
"            x.M+z.A.) ) ) 3 o C , { ) A.N+O+5 P+P+P+P+P+P+P+P+P+P+P+P+Q+R+C Y S+B.T+U+A.            ",
"            V+W+X+Y+9 9 L.Z+n C `+9 9 Y+ @.@V+p.p.p.p.p.p.p.p.p.p.p.p.V++@C @@#@V+$@ @Y+            ",
"            g.%@&@j.A A A *.n C >.B A j.*@=@-@}+}+}+}+}+}+}+}+}+}+}+}+}+g.Z.@+;@g.=@>@j.            ",
"            7.,@N.O.: : : a.o C !.: : O.'@)@7.!@!@!@!@!@!@!@!@!@!@!@!@!@7.~@;@{@7.)@]@O.            ",
"            |.Q.E.[ $ $ < 4 o C ).$ $ _.4.[+|./././././././././././././.6.I ^@/@|.[+I+[             ",
"            /.(.E._.$ $ $ 4 o C ).$ > 7 K (@/./././././././././././././.M c.>+S+M J _@[             ",
"                                                                                                    "};
