/* XPM */
static char * key anim_xpm[] = {
"200 50 5 1",
" 	c None",
".	c #25131A",
"+	c #A7ACBA",
"@	c #56587B",
"#	c #CAE6F5",
"                                                                                                                                                                                                        ",
"                                                                                                                                                                                                        ",
"                                                                                                                                                                                                        ",
"                                                                                                                                                                                                        ",
"                                                                                                                                                                                                        ",
"                                                                                                                                                                                                        ",
"                                                                                                                                                                                                        ",
"                                                                                                                                                                                                        ",
"                                                                                                                                                                                                        ",
"                                                                                                                                                                                                        ",
"                                                                                                                                                                                                        ",
"                                                                                                                                                                                                        ",
"                                                               ........                                     .............                                                                               ",
"                                                               ........                                     .............                                                                               ",
"                                                               ........                                     .............                                                                               ",
"                                                               ........                                     .............                                                                               ",
"                                                          .....++++++++................                 ....+++++++++++++....................             .................                             ",
"                                                          .....++++++++................                 ....+++++++++++++....................             .................                             ",
"                                                          .....++++++++................                 ....+++++++++++++....................             .................                             ",
"                                                          .....++++++++................                 ....+++++++++++++....................             .................                             ",
"                                                          .....++++++++................                 ....+++++++++++++....................             .................                             ",
"        .............                                     .....++++@@@@########@@@@....                 ....+++++@@@@++++++++++++####@@@@....         ....++++#########++++.........................    ",
"        .............                                     .....++++@@@@########@@@@....                 ....+++++@@@@++++++++++++####@@@@....         ....++++#########++++.........................    ",
"        .............                                     .....++++@@@@########@@@@....                 ....+++++@@@@++++++++++++####@@@@....         ....++++#########++++.........................    ",
"    ....+++++########....................                 .....++++@@@@####++++@@@@....                 ....+++++++++++++........####@@@@....         ....####@@@@@@@@@++++++++++++++++++++@@@@.....    ",
"    ....+++++########....................                 .....++++@@@@####++++@@@@....                 ....+++++++++++++........####@@@@....         ....####@@@@@@@@@++++++++++++++++++++@@@@.....    ",
"    ....+++++########....................                 .....++++@@@@####++++@@@@....                 ....+++++++++++++........####@@@@....         ....####@@@@@@@@@++++++++++++++++++++@@@@.....    ",
"    ....+++++########....................                 .....++++@@@@####++++@@@@....                 ....+++++++++++++........####@@@@....         ....####@@@@@@@@@++++++++++++++++++++@@@@.....    ",
"    ....#####@@@@####++++++++++++@@@@....                 .....++++####........@@@@....                     .............        ........             ....#########++++++++............++++@@@@.....    ",
"    ....#####@@@@####++++++++++++@@@@....                 .....++++####........@@@@....                     .............        ........             ....#########++++++++............++++@@@@.....    ",
"    ....#####@@@@####++++++++++++@@@@....                 .....++++####........@@@@....                     .............        ........             ....#########++++++++............++++@@@@.....    ",
"    ....#####@@@@####++++++++++++@@@@....                 .....++++####........@@@@....                     .............        ........             ....#########++++++++............++++@@@@.....    ",
"    ....#########++++........++++@@@@....                      ........        ........                                                                   .................            ........         ",
"    ....#########++++........++++@@@@....                      ........        ........                                                                   .................            ........         ",
"    ....#########++++........++++@@@@....                      ........        ........                                                                   .................            ........         ",
"    ....#########++++........++++@@@@....                      ........        ........                                                                   .................            ........         ",
"    ....#########++++........++++@@@@....                      ........        ........                                                                   .................            ........         ",
"        .............        ........                                                                                                                                                                   ",
"        .............        ........                                                                                                                                                                   ",
"        .............        ........                                                                                                                                                                   ",
"        .............        ........                                                                                                                                                                   ",
"                                                                                                                                                                                                        ",
"                                                                                                                                                                                                        ",
"                                                                                                                                                                                                        ",
"                                                                                                                                                                                                        ",
"                                                                                                                                                                                                        ",
"                                                                                                                                                                                                        ",
"                                                                                                                                                                                                        ",
"                                                                                                                                                                                                        ",
"                                                                                                                                                                                                        "};
