/* XPM */
static char * rune_xpm[] = {
"200 50 7 1",
" 	c None",
".	c #8A961F",
"+	c #5C6B53",
"@	c #25131A",
"#	c #CCF61F",
"$	c #FFFFFF",
"%	c #000000",
"                                                                                                                         @@@@@                                                                          ",
"                                                                                                                         @@@@@                                                                          ",
"                                                                                                                         .....                                                                          ",
"                                                                                                                         .....                                                                          ",
"                                                                                                                         #####                                                                          ",
"                                                                    ......+++++                                       .#########.                                          .....                        ",
"                                                                   ........$$$$                                      .###########                                          .....                        ",
"                                                                    ######$$$$$                                       ###########                                          #####                        ",
"                     ++ ++                                       .#######$$$$$$$$$                                 .###############.                                    .#########.                     ",
"                     .$$$$                                      .#######$$$$$$$$$$$                                .###############.                                   .###########                     ",
"                     $$$$$                                      #######$$$$$$$$$$$                                 .###############.                                    ###########                     ",
"                  .#$$$$$$$$$                                 .#######$$$$$$$$$$$$$$$                              .###############.                                 .###############.                  ",
"                  #$$$$$$$$$$                                ..######$$$$$$$$$$$$$$$$                              .####.......####.                                 .###############.                  ",
"                  $$$$$$$$$$$                                 .#####$$$$$$$$$$$$$$$$$                              ####.........###.                                 .###############.                  ",
"               .##$$$$$$$$$$$##.                              .#####$$$$$$$$$$$$$$$$$                           ...####.+++.....###.+++                              .###############.                  ",
"               .$$$$$$$$$$$$###.                              .######$$$$$$$$$$$$$$$.                          ....####.++.....#$$$.++++                             .#####......####.                  ",
"               +$$$$$$$$$$$####.                              ####..++++++++++++.###.                          ....####.+..#####$$$$++++                             .###.........###.                  ",
"               $$$$$$$$$$$#####.                           . .####.+++++++++++++.###.+                       . ....####...#####$$$$$++++ +                        + .####.++++++..###.++                ",
"               $$$$$$$$$$######.                          ....#$$#++++$$$$$$$+..####..+++                   +......#####...###$$$$$$++++++@                      @+..####.++.....####.+++               ",
"               $$$$$++++++..###.                          ....$$$$+++$$$$$$$$$######.++++                   +......######...#$$$$$$$++++++                        +..####.+..########.+++               ",
"              #$$$$+++++++..###.                          ....$$$$++$$$$$$$$$$$#####.++++                    ......#######.++$$$$$$$++++++                        +..####...#########.+++               ",
"           ..##$$$$+++.....####.+++                    +......$$$$$$$$$$$$$$$$######.++++++@                 ......#######.++$$$$$$$++++++                        +..####....########.+++               ",
"           #..#$$$$++..########.++++                   +......$$$$$$$$+++++++#######.++++++@                 ......#######.++$$$$$$$++++++                        +..######....######.+++               ",
"           ##..$$$$++.#########.+++                    +......$$$$$$$$+++++++.######.++++++                  ......#######.+$$$$$$$$++++++                        +..#######...######.+++               ",
"        ..##...$$$$#...########.++++++                 +.....#$$$$$$$$$+.......#####.++++++@                +......#####$$$$$$$$$$$$++++++                        +..#######.+.######.+++               ",
"        +......##$###...#######.++++++                 +....##$$$$$$$$$$#####....###.++++++@                +......###$$$$$$$$$$$$$$++++++                        +..#######.+.######.+++               ",
"         ......#######...######.++++++                    .###$$$$$$$$$$######...###.++++                      ....###$$$$$$$++$$$$$+++                           +..#######.+.######.+++               ",
"         ......#######.+.######.++++++                    .###$$$$$$$$$$#####..+.###.++++                      ....##$$$$$$$$+++$$$$++++                          +..#######.+.######.+++               ",
"         ......#######.+.######.++++++                    ..##$$$$$$$$$+......++.###.++++                      ....#$$$$$$$+++++$$$$+++                           +..#######.+.######.+++               ",
"         ......#######...######.++++++                       #$$$$++++++++..++++.###.+                            .$$$$$++++++++$$$$                              +..#######...######.+++               ",
"        +......#######...######.++++++                        $$$$...............###.                              $$$$$+++++++$$$$+                              +..#######...######.+++               ",
"        +......#########...####.++++++@                       $$$$##.....#..########.                              $$$$$$$$$$$$$$$$.                              +..#########...####.+++               ",
"         . ....##########...###.++++ +                        $$$$##################.                              $$$$$$$$$$$$$$##.                              +..##########...###.+++               ",
"           ....#########..+.###.++++                          $$$$##################.                              $$$$$$$$$$$$$$##.                              +..#########..+.###.+++               ",
"           ....#####.....++.###.++++                         +.$$###################.                              $$$$$$$$$$$$$###.                             @+..#####.....+++$$$.++@               ",
"            ...####.....+++.###.+++                           .#####################.                              $$$$$$$$$$$#####.                              +..####.....++++$$$$++@               ",
"               ####.........###.                                ##################                                    $$$$$$$$###                                    ####.....+++$$$$$                  ",
"               .####.......####.                                .#################                                    $$$$$$$####                                    .####.....$$$$$$$                  ",
"               .###############.                                 .###############.                                    $$$$$#####.                                    .########$$$$$$$$                  ",
"               .###############.                                    ###########                                          $####                                       .########$$$$$$$+                  ",
"               .###############.                                   ............                                          .....                                       .######$$$$$$$$$+                  ",
"               .###############.                                    ..       ..                                          ++ ..                                       .#####$$$$$$$$$$+                  ",
"                  ###########                                                                                                                                           ###$$$$$$$$                     ",
"                 .###########                                                                                                                                          ##$$$$$$$$$$                     ",
"                  .#########.                                                                                                                                           #$$$$$$$$$$                     ",
"                     #####                                                                                                                                                 $$$$$                        ",
"                     .....                                                                                                                                                 $$$$$                        ",
"                     .....                                                                                                                                                 +++++                        ",
"                     @@@@@                                                                                                                                                 +++++                        ",
"                     @@@@@                                                                                                                                                 %%%%%                        "};
