/* XPM */
static char * space_xpm[] = {
"50 50 2 1",
" 	c #523B40",
".	c #3D253B",
"     ..........................................   ",
"     ..........................................   ",
"     ..........................................   ",
"    ........................     ...............  ",
"   .........................     ................ ",
"...........................       ................",
"..........................        ................",
"..........................        ................",
".........     ............        ................",
"........       ...........        ................",
".......         ...........       ................",
"......          ............     .................",
"......          .............   ..................",
"......          ..................................",
"......        ....................................",
".......       ....................................",
"........     .............................   .....",
".........................................    .....",
".........................................    .....",
".........................................   ......",
"..................................................",
"..................................................",
"..................................................",
"...........................  .....................",
"...........................   ....................",
"...........................    ...................",
"..........      ...........    ...................",
".........        ...........   ...................",
"........           ...............................",
"........           ...............................",
"  ......           .............................  ",
"  ......           .............................  ",
" .......          ............................... ",
"........         .................................",
".........       ...................     ..........",
"..........     ...................       .........",
".................................         ........",
".................................         ........",
".................................         ........",
".................................         ........",
".................................         ........",
"..................................       .........",
".....................  ...........................",
"....................    ..........................",
"  ..................   .........................  ",
"   ............................................   ",
"    ...........................................   ",
"     ..........................................   ",
"     ..........................................   ",
"     ..........................................   "};
